<svg xmlns="http://www.w3.org/2000/svg" xmlns:xlink="http://www.w3.org/1999/xlink" width="500" zoomAndPan="magnify" viewBox="0 0 375 112.499997" height="150" preserveAspectRatio="xMidYMid meet" version="1.0"><defs><clipPath id="469d067bf7"><path d="M 32.628906 12.472656 L 83 12.472656 L 83 81 L 32.628906 81 Z M 32.628906 12.472656 " clip-rule="nonzero"/></clipPath><clipPath id="c352fa98f9"><path d="M 47.28125 80.835938 C 42.351562 80.835938 37.433594 79.796875 32.796875 77.726562 L 40.019531 61.546875 C 44.367188 63.492188 49.21875 63.625 53.664062 61.921875 C 58.109375 60.21875 61.632812 56.882812 63.578125 52.53125 C 67.597656 43.550781 63.554688 32.976562 54.566406 28.972656 L 61.792969 12.792969 C 79.695312 20.78125 87.761719 41.855469 79.769531 59.757812 C 75.898438 68.429688 68.882812 75.078125 60.011719 78.476562 C 55.878906 80.050781 51.582031 80.84375 47.289062 80.84375 " clip-rule="nonzero"/></clipPath><clipPath id="dd6e596afd"><path d="M 4 25 L 54.722656 25 L 54.722656 94 L 4 94 Z M 4 25 " clip-rule="nonzero"/></clipPath><clipPath id="4f30e1b508"><path d="M 25.578125 93.90625 C 16.90625 90.03125 10.257812 83.015625 6.867188 74.144531 C 3.476562 65.273438 3.734375 55.613281 7.601562 46.941406 C 15.59375 29.035156 36.664062 20.972656 54.566406 28.964844 L 47.347656 45.140625 C 38.367188 41.136719 27.792969 45.179688 23.78125 54.160156 C 21.835938 58.511719 21.703125 63.359375 23.414062 67.804688 C 25.125 72.253906 28.453125 75.78125 32.804688 77.71875 Z M 25.578125 93.90625 " clip-rule="nonzero"/></clipPath><clipPath id="6f9ffe6778"><path d="M 109.613281 39.3125 L 134.828125 39.3125 L 134.828125 67.1875 L 109.613281 67.1875 Z M 109.613281 39.3125 " clip-rule="nonzero"/></clipPath><clipPath id="d5496f738d"><path d="M 124.074219 67.160156 C 122.011719 67.160156 120.097656 66.8125 118.332031 66.132812 C 116.5625 65.449219 115.035156 64.480469 113.730469 63.234375 C 112.421875 61.984375 111.417969 60.503906 110.691406 58.808594 C 109.964844 57.113281 109.613281 55.25 109.613281 53.234375 C 109.613281 51.214844 109.972656 49.367188 110.699219 47.671875 C 111.425781 45.976562 112.4375 44.488281 113.75 43.238281 C 115.066406 41.992188 116.597656 41.023438 118.351562 40.339844 C 120.105469 39.660156 122.027344 39.3125 124.113281 39.3125 C 126.328125 39.3125 128.351562 39.695312 130.179688 40.457031 C 132.007812 41.222656 133.554688 42.34375 134.816406 43.839844 L 131.566406 46.894531 C 130.582031 45.835938 129.488281 45.042969 128.28125 44.515625 C 127.070312 43.988281 125.753906 43.722656 124.332031 43.722656 C 122.910156 43.722656 121.617188 43.957031 120.441406 44.421875 C 119.269531 44.882812 118.25 45.542969 117.390625 46.394531 C 116.53125 47.246094 115.859375 48.25 115.378906 49.410156 C 114.902344 50.570312 114.660156 51.847656 114.660156 53.238281 C 114.660156 54.632812 114.894531 55.910156 115.378906 57.070312 C 115.863281 58.230469 116.523438 59.234375 117.390625 60.085938 C 118.257812 60.9375 119.269531 61.597656 120.441406 62.058594 C 121.617188 62.519531 122.910156 62.757812 124.332031 62.757812 C 125.753906 62.757812 127.0625 62.492188 128.28125 61.964844 C 129.496094 61.4375 130.582031 60.628906 131.566406 59.550781 L 134.816406 62.644531 C 133.554688 64.113281 132.007812 65.234375 130.179688 66.007812 C 128.351562 66.777344 126.3125 67.164062 124.066406 67.164062 " clip-rule="nonzero"/></clipPath><clipPath id="fcdd90edf2"><path d="M 151.265625 39.699219 L 174.480469 39.699219 L 174.480469 66.800781 L 151.265625 66.800781 Z M 151.265625 39.699219 " clip-rule="nonzero"/></clipPath><clipPath id="f542f9084d"><path d="M 167.179688 45.34375 C 168.300781 46.265625 168.859375 47.59375 168.859375 49.328125 C 168.859375 51.03125 168.300781 52.355469 167.179688 53.3125 C 166.054688 54.265625 164.390625 54.742188 162.167969 54.742188 L 156.289062 54.742188 L 156.289062 43.957031 L 162.167969 43.957031 C 164.382812 43.957031 166.054688 44.417969 167.179688 45.351562 M 174.390625 66.773438 L 168.167969 57.898438 C 168.300781 57.84375 168.449219 57.800781 168.574219 57.75 C 170.289062 56.988281 171.609375 55.894531 172.535156 54.464844 C 173.460938 53.03125 173.929688 51.324219 173.929688 49.34375 C 173.929688 47.359375 173.464844 45.644531 172.535156 44.199219 C 171.601562 42.753906 170.28125 41.644531 168.574219 40.875 C 166.863281 40.105469 164.800781 39.699219 162.402344 39.699219 L 151.265625 39.699219 L 151.265625 66.769531 L 156.289062 66.769531 L 156.289062 58.878906 L 162.402344 58.878906 C 162.761719 58.878906 163.097656 58.859375 163.453125 58.835938 L 168.976562 66.769531 Z M 174.390625 66.773438 " clip-rule="nonzero"/></clipPath><clipPath id="b7d95a4052"><path d="M 191.136719 39.699219 L 210.894531 39.699219 L 210.894531 43.914062 L 191.136719 43.914062 Z M 191.136719 43.914062 L 196.160156 43.914062 L 196.160156 50.957031 L 191.136719 50.957031 Z M 191.136719 50.957031 L 209.234375 50.957031 L 209.234375 55.09375 L 191.136719 55.09375 Z M 191.136719 55.09375 L 196.160156 55.09375 L 196.160156 62.554688 L 191.136719 62.554688 Z M 191.136719 62.554688 L 211.4375 62.554688 L 211.4375 66.769531 L 191.136719 66.769531 Z M 191.136719 62.554688 " clip-rule="nonzero"/></clipPath><clipPath id="738d0fb76e"><path d="M 224.820312 39.699219 L 254.214844 39.699219 L 254.214844 66.769531 L 224.820312 66.769531 Z M 224.820312 39.699219 " clip-rule="nonzero"/></clipPath><clipPath id="d826c68e4d"><path d="M 234.371094 56.5625 L 239.441406 44.710938 L 244.527344 56.5625 Z M 248.914062 66.769531 L 254.167969 66.769531 L 241.953125 39.699219 L 237 39.699219 L 224.820312 66.769531 L 230 66.769531 L 232.675781 60.5 L 246.222656 60.5 Z M 248.914062 66.769531 " clip-rule="nonzero"/></clipPath><clipPath id="ba49b2dab6"><path d="M 270.296875 39.699219 L 290.910156 39.699219 L 290.910156 66.835938 L 270.296875 66.835938 Z M 270.296875 39.699219 " clip-rule="nonzero"/></clipPath><clipPath id="95177d0df1"><path d="M 286.636719 54.21875 C 285.125 55.496094 282.914062 56.136719 280.003906 56.136719 L 272.269531 56.136719 L 272.269531 41.484375 L 280.003906 41.484375 C 282.914062 41.484375 285.125 42.121094 286.636719 43.398438 C 288.148438 44.675781 288.894531 46.488281 288.894531 48.835938 C 288.894531 51.152344 288.140625 52.949219 286.636719 54.226562 M 289.59375 43.898438 C 288.710938 42.539062 287.464844 41.503906 285.84375 40.785156 C 284.222656 40.066406 282.269531 39.699219 280.003906 39.699219 L 270.296875 39.699219 L 270.296875 66.773438 L 272.269531 66.773438 L 272.269531 57.917969 L 280.003906 57.917969 C 282.269531 57.917969 284.214844 57.558594 285.84375 56.832031 C 287.472656 56.105469 288.71875 55.0625 289.59375 53.699219 C 290.464844 52.335938 290.90625 50.707031 290.90625 48.828125 C 290.90625 46.890625 290.464844 45.246094 289.59375 43.898438 " clip-rule="nonzero"/></clipPath><clipPath id="69e1697c1b"><path d="M 309.160156 39.699219 L 330.199219 39.699219 L 330.199219 66.820312 L 309.160156 66.820312 Z M 309.160156 39.699219 " clip-rule="nonzero"/></clipPath><clipPath id="729b2845b0"><path d="M 311.136719 56.171875 L 311.136719 41.484375 L 318.867188 41.484375 C 321.78125 41.484375 323.988281 42.121094 325.5 43.398438 C 327.011719 44.675781 327.761719 46.488281 327.761719 48.828125 C 327.761719 51.148438 327.003906 52.953125 325.5 54.242188 C 323.996094 55.535156 321.78125 56.171875 318.867188 56.171875 Z M 330.199219 66.769531 L 323.410156 57.300781 C 323.867188 57.164062 324.289062 57 324.703125 56.820312 C 326.324219 56.085938 327.578125 55.042969 328.453125 53.683594 C 329.324219 52.328125 329.765625 50.714844 329.765625 48.828125 C 329.765625 46.890625 329.324219 45.246094 328.453125 43.898438 C 327.578125 42.546875 326.324219 41.503906 324.703125 40.785156 C 323.082031 40.066406 321.136719 39.699219 318.867188 39.699219 L 309.160156 39.699219 L 309.160156 66.769531 L 311.136719 66.769531 L 311.136719 57.910156 L 318.867188 57.910156 C 319.792969 57.910156 320.652344 57.839844 321.464844 57.714844 L 327.953125 66.769531 Z M 330.199219 66.769531 " clip-rule="nonzero"/></clipPath><clipPath id="c0b6f4b501"><path d="M 346.015625 39.507812 L 374.167969 39.507812 L 374.167969 67 L 346.015625 67 Z M 346.015625 39.507812 " clip-rule="nonzero"/></clipPath><clipPath id="8f600b308e"><path d="M 360.089844 65.140625 C 361.8125 65.140625 363.414062 64.847656 364.886719 64.253906 C 366.363281 63.660156 367.632812 62.824219 368.71875 61.738281 C 369.804688 60.652344 370.648438 59.390625 371.25 57.945312 C 371.851562 56.5 372.160156 54.929688 372.160156 53.226562 C 372.160156 51.503906 371.859375 49.917969 371.25 48.488281 C 370.640625 47.054688 369.796875 45.800781 368.71875 44.714844 C 367.640625 43.628906 366.363281 42.792969 364.886719 42.199219 C 363.414062 41.605469 361.820312 41.3125 360.089844 41.3125 C 358.359375 41.3125 356.765625 41.605469 355.292969 42.199219 C 353.816406 42.792969 352.546875 43.644531 351.445312 44.730469 C 350.347656 45.816406 349.503906 47.0625 348.898438 48.496094 C 348.296875 49.925781 347.992188 51.503906 347.992188 53.234375 C 347.992188 54.9375 348.292969 56.507812 348.898438 57.953125 C 349.507812 59.398438 350.351562 60.660156 351.453125 61.746094 C 352.554688 62.832031 353.832031 63.667969 355.296875 64.261719 C 356.765625 64.855469 358.367188 65.148438 360.097656 65.148438 M 360.097656 66.96875 C 358.085938 66.96875 356.222656 66.625 354.507812 65.941406 C 352.789062 65.261719 351.292969 64.292969 350.023438 63.042969 C 348.753906 61.796875 347.761719 60.335938 347.066406 58.671875 C 346.367188 57.003906 346.015625 55.191406 346.015625 53.234375 C 346.015625 51.273438 346.363281 49.464844 347.058594 47.804688 C 347.753906 46.148438 348.738281 44.679688 350.015625 43.433594 C 351.292969 42.183594 352.789062 41.214844 354.507812 40.535156 C 356.222656 39.851562 358.085938 39.507812 360.089844 39.507812 C 362.09375 39.507812 363.964844 39.851562 365.679688 40.535156 C 367.398438 41.214844 368.886719 42.175781 370.148438 43.417969 C 371.410156 44.65625 372.402344 46.101562 373.105469 47.769531 C 373.808594 49.433594 374.167969 51.253906 374.167969 53.242188 C 374.167969 55.230469 373.816406 57.050781 373.105469 58.714844 C 372.394531 60.378906 371.410156 61.824219 370.148438 63.066406 C 368.886719 64.304688 367.398438 65.265625 365.679688 65.949219 C 363.964844 66.632812 362.101562 66.976562 360.089844 66.976562 " clip-rule="nonzero"/></clipPath></defs><g clip-path="url(#469d067bf7)"><g clip-path="url(#c352fa98f9)"><path fill="#ffffff" d="M 0.828125 9.125 L 86.523438 9.125 L 86.523438 97.492188 L 0.828125 97.492188 Z M 0.828125 9.125 " fill-opacity="1" fill-rule="nonzero"/></g></g><g clip-path="url(#dd6e596afd)"><g clip-path="url(#4f30e1b508)"><path fill="#ffffff" d="M 0.828125 9.125 L 86.523438 9.125 L 86.523438 97.492188 L 0.828125 97.492188 Z M 0.828125 9.125 " fill-opacity="1" fill-rule="nonzero"/></g></g><g clip-path="url(#6f9ffe6778)"><g clip-path="url(#d5496f738d)"><path fill="#ffffff" d="M 109.613281 39.3125 L 134.828125 39.3125 L 134.828125 67.1875 L 109.613281 67.1875 Z M 109.613281 39.3125 " fill-opacity="1" fill-rule="nonzero"/></g></g><g clip-path="url(#fcdd90edf2)"><g clip-path="url(#f542f9084d)"><path fill="#ffffff" d="M 151.265625 39.699219 L 174.390625 39.699219 L 174.390625 66.800781 L 151.265625 66.800781 Z M 151.265625 39.699219 " fill-opacity="1" fill-rule="nonzero"/></g></g><g clip-path="url(#b7d95a4052)"><path fill="#ffffff" d="M 191.136719 39.699219 L 211.4375 39.699219 L 211.4375 66.746094 L 191.136719 66.746094 Z M 191.136719 39.699219 " fill-opacity="1" fill-rule="nonzero"/></g><g clip-path="url(#738d0fb76e)"><g clip-path="url(#d826c68e4d)"><path fill="#ffffff" d="M 224.820312 39.699219 L 254.214844 39.699219 L 254.214844 66.769531 L 224.820312 66.769531 Z M 224.820312 39.699219 " fill-opacity="1" fill-rule="nonzero"/></g></g><g clip-path="url(#ba49b2dab6)"><g clip-path="url(#95177d0df1)"><path fill="#ffffff" d="M 270.296875 39.699219 L 290.910156 39.699219 L 290.910156 66.753906 L 270.296875 66.753906 Z M 270.296875 39.699219 " fill-opacity="1" fill-rule="nonzero"/></g></g><g clip-path="url(#69e1697c1b)"><g clip-path="url(#729b2845b0)"><path fill="#ffffff" d="M 309.160156 39.699219 L 330.199219 39.699219 L 330.199219 66.738281 L 309.160156 66.738281 Z M 309.160156 39.699219 " fill-opacity="1" fill-rule="nonzero"/></g></g><g clip-path="url(#c0b6f4b501)"><g clip-path="url(#8f600b308e)"><path fill="#ffffff" d="M 346.015625 39.507812 L 374.117188 39.507812 L 374.117188 66.964844 L 346.015625 66.964844 Z M 346.015625 39.507812 " fill-opacity="1" fill-rule="nonzero"/></g></g></svg>