<?xml version="1.0" encoding="utf-8"?>
<!-- Generator: Adobe Illustrator 27.5.0, SVG Export Plug-In . SVG Version: 6.00 Build 0)  -->
<svg version="1.1" id="Layer_1" xmlns="http://www.w3.org/2000/svg" xmlns:xlink="http://www.w3.org/1999/xlink" x="0px" y="0px"
	 width="507.402px" height="116.22px" viewBox="0 0 507.402 116.22" style="enable-background:new 0 0 507.402 116.22;"
	 xml:space="preserve">
<style type="text/css">
	.st0{fill:url(#SVGID_1_);}
	.st1{fill:#28225E;}
</style>
<g>
	<linearGradient id="SVGID_1_" gradientUnits="userSpaceOnUse" x1="61.7169" y1="101.0205" x2="102.6757" y2="13.1841">
		<stop  offset="0" style="stop-color:#4A74B7"/>
		<stop  offset="1" style="stop-color:#68A6DC"/>
	</linearGradient>
	<path class="st0" d="M60.579,95.521c-6.718,0.001-13.419-1.415-19.737-4.235l9.843-22.048c5.931,2.647,12.538,2.825,18.604,0.505
		c6.066-2.322,10.864-6.867,13.512-12.797c5.465-12.244-0.049-26.652-12.292-32.118L80.35,2.781
		c24.401,10.893,35.391,39.606,24.498,64.007c-5.277,11.82-14.84,20.879-26.93,25.506C72.291,94.448,66.429,95.521,60.579,95.521z"
		/>
</g>
<g>
	<path class="st1" d="M30.998,113.332c-11.82-5.277-20.878-14.841-25.505-26.93C0.866,74.313,1.224,61.145,6.5,49.326
		c10.893-24.4,39.609-35.391,64.007-24.499l-9.842,22.048c-12.245-5.463-26.651,0.05-32.118,12.293
		c-2.648,5.931-2.827,12.538-0.505,18.604c2.322,6.066,6.867,10.865,12.798,13.513L30.998,113.332z"/>
</g>
<g>
	<path class="st1" d="M165.242,76.877c-2.812,0-5.421-0.466-7.827-1.397c-2.407-0.93-4.499-2.248-6.273-3.953
		c-1.774-1.704-3.154-3.716-4.137-6.035c-0.984-2.32-1.476-4.849-1.476-7.59c0-2.74,0.492-5.271,1.476-7.589
		c0.984-2.32,2.372-4.331,4.165-6.036c1.791-1.703,3.882-3.022,6.272-3.953c2.39-0.93,5.007-1.396,7.853-1.396
		c3.022,0,5.78,0.519,8.275,1.555c2.495,1.037,4.603,2.574,6.325,4.612l-4.427,4.164c-1.336-1.44-2.829-2.521-4.48-3.241
		c-1.653-0.72-3.444-1.081-5.376-1.081c-1.933,0-3.698,0.317-5.297,0.949c-1.6,0.632-2.988,1.528-4.165,2.688
		c-1.178,1.16-2.091,2.53-2.74,4.111c-0.651,1.582-0.976,3.321-0.976,5.218c0,1.897,0.325,3.637,0.976,5.218
		c0.65,1.582,1.562,2.952,2.74,4.111c1.177,1.159,2.564,2.056,4.165,2.689c1.598,0.632,3.363,0.949,5.297,0.949
		c1.932,0,3.724-0.36,5.376-1.081c1.651-0.719,3.144-1.819,4.48-3.295l4.427,4.217c-1.722,2.003-3.83,3.531-6.325,4.585
		C171.074,76.349,168.298,76.877,165.242,76.877z"/>
	<path class="st1" d="M233.813,76.349l-8.482-12.104c0.18-0.072,0.375-0.126,0.55-0.203c2.336-1.036,4.137-2.529,5.403-4.48
		c1.264-1.95,1.897-4.277,1.897-6.983c0-2.705-0.633-5.042-1.897-7.011c-1.265-1.967-3.066-3.478-5.403-4.533
		c-2.337-1.054-5.139-1.581-8.407-1.581h-15.179v36.894h6.851V65.597h8.328c0.493,0,0.955-0.035,1.426-0.059l7.534,10.811H233.813z
		 M223.983,47.15c1.528,1.264,2.292,3.075,2.292,5.429c0,2.319-0.764,4.129-2.292,5.429c-1.529,1.3-3.804,1.95-6.826,1.95h-8.012
		V45.253h8.012C220.179,45.253,222.454,45.885,223.983,47.15z"/>
	<polygon class="st1" points="263.486,70.604 263.486,60.432 281.302,60.432 281.302,54.793 263.486,54.793 263.486,45.199 
		283.568,45.199 283.568,39.455 256.635,39.455 256.635,76.349 284.306,76.349 284.306,70.604 	"/>
	<path class="st1" d="M335.379,76.349h7.169l-16.655-36.894h-6.747l-16.602,36.894h7.062l3.654-8.539h18.453L335.379,76.349z
		 M315.559,62.435l6.91-16.147l6.935,16.147H315.559z"/>
	<path class="st1" d="M390.826,45.173c-1.195-1.845-2.898-3.259-5.112-4.243c-2.214-0.983-4.868-1.475-7.959-1.475h-13.23v36.894
		h2.689v-12.07h10.541c3.092,0,5.745-0.491,7.959-1.475c2.214-0.984,3.917-2.407,5.112-4.269c1.194-1.862,1.792-4.076,1.792-6.642
		C392.618,49.258,392.02,47.018,390.826,45.173z M386.794,59.246c-2.056,1.74-5.069,2.609-9.04,2.609h-10.541V41.879h10.541
		c3.97,0,6.984,0.869,9.04,2.608c2.056,1.74,3.083,4.209,3.083,7.406C389.877,55.056,388.85,57.507,386.794,59.246z"/>
	<path class="st1" d="M446.169,76.349l-9.25-12.909c0.616-0.189,1.205-0.41,1.765-0.663c2.214-1.001,3.917-2.425,5.112-4.268
		c1.194-1.845,1.792-4.05,1.792-6.615c0-2.635-0.598-4.875-1.792-6.72c-1.195-1.845-2.898-3.259-5.112-4.243
		c-2.214-0.983-4.868-1.475-7.959-1.475h-13.23v36.894h2.689v-12.07h10.541c1.26,0,2.429-0.105,3.543-0.271l8.844,12.342H446.169z
		 M420.184,61.908V41.879h10.541c3.97,0,6.984,0.869,9.04,2.608c2.056,1.74,3.083,4.209,3.083,7.406
		c0,3.162-1.027,5.622-3.083,7.379s-5.07,2.635-9.04,2.635H420.184z"/>
	<path class="st1" d="M486.91,76.613c-2.74,0-5.279-0.465-7.616-1.396c-2.337-0.93-4.374-2.249-6.113-3.953
		c-1.74-1.704-3.084-3.69-4.033-5.956c-0.949-2.266-1.422-4.735-1.422-7.406c0-2.669,0.474-5.138,1.422-7.405
		c0.949-2.266,2.292-4.252,4.033-5.956c1.739-1.704,3.776-3.022,6.113-3.953s4.876-1.397,7.616-1.397
		c2.741,0,5.279,0.466,7.616,1.397c2.336,0.931,4.366,2.24,6.088,3.927c1.721,1.687,3.064,3.663,4.032,5.929
		c0.966,2.266,1.45,4.753,1.45,7.458c0,2.706-0.484,5.192-1.45,7.458c-0.967,2.266-2.311,4.243-4.032,5.93
		c-1.723,1.687-3.752,2.996-6.088,3.927C492.19,76.147,489.651,76.613,486.91,76.613z M486.91,74.136
		c2.354,0,4.533-0.403,6.536-1.212c2.003-0.808,3.742-1.951,5.218-3.427c1.476-1.476,2.627-3.196,3.453-5.165
		c0.824-1.968,1.238-4.111,1.238-6.431c0-2.354-0.414-4.506-1.238-6.456c-0.826-1.951-1.977-3.664-3.453-5.139
		c-1.476-1.476-3.215-2.617-5.218-3.426c-2.003-0.808-4.182-1.213-6.536-1.213c-2.355,0-4.533,0.405-6.536,1.213
		c-2.003,0.809-3.751,1.95-5.244,3.426s-2.654,3.189-3.478,5.139c-0.826,1.95-1.239,4.102-1.239,6.456
		c0,2.32,0.413,4.463,1.239,6.431c0.824,1.968,1.985,3.689,3.478,5.165c1.493,1.476,3.241,2.619,5.244,3.427
		C482.378,73.733,484.556,74.136,486.91,74.136z"/>
</g>
</svg>
